<svg width="24" height="25" viewBox="0 0 24 25" fill="none" xmlns="http://www.w3.org/2000/svg">
<path d="M21.1 12.4999C21.1 14.9134 20.1413 17.228 18.4347 18.9346C16.7281 20.6412 14.4135 21.5999 12 21.5999C9.58655 21.5999 7.27193 20.6412 5.56535 18.9346C3.85877 17.228 2.90002 14.9134 2.90002 12.4999C2.90002 10.0864 3.85877 7.77181 5.56535 6.06523C7.27193 4.35865 9.58655 3.3999 12 3.3999C14.4135 3.3999 16.7281 4.35865 18.4347 6.06523C20.1413 7.77181 21.1 10.0864 21.1 12.4999ZM13.2021 18.502C13.5209 18.1832 13.7 17.7508 13.7 17.2999C13.7 16.849 13.5209 16.4166 13.2021 16.0978C12.8833 15.779 12.4509 15.5999 12 15.5999C11.5492 15.5999 11.1168 15.779 10.7979 16.0978C10.4791 16.4166 10.3 16.849 10.3 17.2999C10.3 17.7508 10.4791 18.1832 10.7979 18.502C11.1168 18.8208 11.5492 18.9999 12 18.9999C12.4509 18.9999 12.8833 18.8208 13.2021 18.502ZM12 5.9999C11.5492 5.9999 11.1168 6.17901 10.7979 6.49782C10.4791 6.81663 10.3 7.24903 10.3 7.6999V12.4999C10.3 12.9508 10.4791 13.3832 10.7979 13.702C11.1168 14.0208 11.5492 14.1999 12 14.1999C12.4509 14.1999 12.8833 14.0208 13.2021 13.702C13.5209 13.3832 13.7 12.9508 13.7 12.4999V7.6999C13.7 7.24903 13.5209 6.81663 13.2021 6.49782C12.8833 6.17901 12.4509 5.9999 12 5.9999Z" fill="#E02424" stroke="#E02424"/>
</svg>
