<svg width="24" height="25" viewBox="0 0 24 25" fill="none" xmlns="http://www.w3.org/2000/svg">
<path d="M19.2 5.80005H19.2001C19.6849 5.79996 20.1515 5.98527 20.5042 6.31801L20.8473 5.95432L20.5042 6.31801C20.7789 6.57718 20.9684 6.91051 21.052 7.27398L12 11.7994L2.94791 7.27398C3.03154 6.91051 3.22098 6.57718 3.49569 6.31801C3.8484 5.98527 4.31498 5.79996 4.79987 5.80005H4.79996H19.2Z" fill="#696969" stroke="#696969"/>
<path d="M21.6 10.2417L12 15.0417L2.40002 10.2417V17.3001C2.40002 17.9366 2.65288 18.5471 3.10297 18.9972C3.55306 19.4472 4.1635 19.7001 4.80002 19.7001H19.2C19.8365 19.7001 20.447 19.4472 20.8971 18.9972C21.3472 18.5471 21.6 17.9366 21.6 17.3001V10.2417Z" fill="#696969"/>
</svg>
